<svg width="1969" height="572" viewBox="0 0 1969 572" fill="none" xmlns="http://www.w3.org/2000/svg">
<path d="M637.106 297.242C637.106 300.205 634.404 302.617 631.176 302.617H516.935C519.787 328.526 541.029 352.162 570.903 352.162C591.319 352.162 606.481 344.995 617.89 330.042C619.542 327.975 622.019 326.666 625.171 327.906C626.898 328.595 628.099 330.042 628.399 331.696C628.699 333.419 628.174 334.384 627.648 335.348C616.164 353.747 593.271 362.774 570.828 362.774C532.397 362.774 505 331.214 505 297.448C505 263.683 532.397 232.123 570.828 232.123C609.258 232.054 637.031 263.545 637.106 297.242ZM624.871 292.142C622.394 266.233 600.777 242.597 570.903 242.597C541.029 242.597 519.787 266.233 516.935 292.142H624.871ZM775.742 234.672C779.044 234.672 781.446 237.291 781.446 239.91C781.446 242.942 778.969 245.147 775.742 245.147H745.117V355.47C745.117 358.088 742.64 360.707 739.413 360.707C736.11 360.707 733.708 358.088 733.708 355.47V245.147H704.285C700.982 245.147 698.58 242.873 698.58 239.91C698.58 237.291 701.057 234.672 704.285 234.672H733.708V194.292C733.708 191.742 735.585 189.399 738.287 188.986C742.115 188.435 745.117 190.847 745.117 194.154V234.672H775.742ZM962.566 288.008V354.849C962.566 357.881 959.714 360.087 956.862 360.087C953.559 360.087 951.157 357.813 951.157 354.849V288.008C951.157 265.475 937.271 242.942 909.874 242.942C874.746 242.942 859.584 271.125 861.61 299.998C861.61 300.756 861.986 304.133 861.986 304.477V354.643C861.986 357.192 860.109 359.535 857.407 359.949C853.579 360.5 850.577 358.088 850.577 354.781V135.237C850.577 132.619 853.054 130 856.281 130C859.584 130 861.986 132.619 861.986 135.237V259.48C871.819 243.355 889.383 232.467 909.799 232.467C943.351 232.467 962.566 259.48 962.566 288.008ZM1167.41 297.242C1167.41 300.205 1164.7 302.617 1161.48 302.617H1047.16C1050.01 328.526 1071.25 352.162 1101.13 352.162C1121.54 352.162 1136.71 344.995 1148.11 330.042C1149.77 327.975 1152.24 326.666 1155.4 327.906C1157.12 328.595 1158.32 330.042 1158.62 331.696C1158.92 333.419 1158.4 334.384 1157.87 335.348C1146.39 353.747 1123.5 362.774 1101.05 362.774C1062.62 362.774 1035.22 331.214 1035.22 297.448C1035.22 263.683 1062.62 232.123 1101.05 232.123C1139.56 232.054 1167.33 263.545 1167.41 297.242ZM1155.1 292.142C1152.62 266.233 1131 242.597 1101.13 242.597C1071.25 242.597 1050.01 266.233 1047.16 292.142H1155.1ZM1307.62 239.565C1307.62 242.942 1305.59 244.802 1302.29 245.216C1268.74 249.695 1253.65 274.846 1253.65 304.133V354.298C1253.65 356.848 1251.77 359.191 1249.07 359.604C1245.24 360.155 1242.24 357.744 1242.24 354.436V240.116C1242.24 237.567 1244.12 235.224 1246.82 234.81C1250.65 234.259 1253.65 236.671 1253.65 239.978V263.27C1263.03 248.661 1281.87 234.741 1301.46 234.741C1304.31 234.672 1307.62 236.602 1307.62 239.565ZM1495.27 297.242C1495.27 300.205 1492.57 302.617 1489.34 302.617H1375.1C1377.95 328.526 1399.19 352.162 1429.06 352.162C1449.48 352.162 1464.64 344.995 1476.05 330.042C1477.7 327.975 1480.18 326.666 1483.33 327.906C1485.06 328.595 1486.26 330.042 1486.56 331.696C1486.86 333.419 1486.34 334.384 1485.81 335.348C1474.33 353.747 1451.43 362.774 1428.99 362.774C1390.56 362.774 1363.16 331.214 1363.16 297.448C1363.16 263.683 1390.56 232.123 1428.99 232.123C1467.42 232.054 1495.19 263.545 1495.27 297.242ZM1483.03 292.142C1480.56 266.233 1458.94 242.597 1429.06 242.597C1399.19 242.597 1377.95 266.233 1375.1 292.142H1483.03ZM1679.69 240.874V355.47C1679.69 358.502 1676.84 360.707 1673.99 360.707C1670.68 360.707 1668.28 358.433 1668.28 355.47V333.694C1658.9 350.991 1642.09 363.325 1620.84 363.325C1586.92 363.325 1568.08 336.313 1568.08 307.785V240.599C1568.08 237.98 1570.55 235.362 1573.78 235.362C1577.08 235.362 1579.49 237.98 1579.49 240.599V307.785C1579.49 330.318 1593.37 352.851 1620.77 352.851C1659.2 352.851 1668.21 319.844 1668.21 283.391V240.599C1668.21 237.567 1671.51 234.466 1675.56 235.568C1678.04 236.326 1679.69 238.531 1679.69 240.874ZM1968.67 287.594V354.781C1968.67 357.813 1965.82 360.018 1962.97 360.018C1959.66 360.018 1957.26 357.744 1957.26 354.781V287.594C1957.26 265.061 1943.38 242.942 1915.98 242.942C1881.6 242.942 1868.54 276.707 1868.54 302.961V354.781C1868.54 357.813 1865.69 360.018 1862.84 360.018C1859.53 360.018 1857.13 357.744 1857.13 354.781V287.594C1857.13 265.061 1843.25 242.942 1815.85 242.942C1781.1 242.942 1766.76 268.093 1768.04 301.514C1768.04 302.272 1768.41 303.788 1768.04 304.133V354.643C1768.04 357.192 1766.16 359.535 1763.38 359.949C1759.55 360.5 1756.55 358.088 1756.55 354.781V240.116C1756.55 237.567 1758.43 235.224 1761.13 234.81C1764.96 234.259 1767.96 236.671 1767.96 239.978V259.135C1777.79 243.01 1795.36 232.467 1815.77 232.467C1839.04 232.467 1857.06 245.974 1864.41 265.888C1873.8 246.387 1892.19 232.467 1915.9 232.467C1949.46 232.467 1968.67 259.066 1968.67 287.594Z" fill="white"/>
<g opacity="0.6">
<mask id="mask0_222_101" style="mask-type:luminance" maskUnits="userSpaceOnUse" x="0" y="211" width="382" height="184">
<path d="M0 211.137H381.831V394.434H0V211.137Z" fill="white"/>
</mask>
<g mask="url(#mask0_222_101)">
<path d="M190.953 211.137L0 290.864L190.953 394.434L381.831 290.864L190.953 211.137Z" fill="white"/>
</g>
</g>
<g opacity="0.45">
<mask id="mask1_222_101" style="mask-type:luminance" maskUnits="userSpaceOnUse" x="0" y="0" width="191" height="395">
<path d="M0 0H190.953V394.434H0V0Z" fill="white"/>
</mask>
<g mask="url(#mask1_222_101)">
<path d="M0 290.864L190.953 394.434V0L0 290.864Z" fill="white"/>
</g>
</g>
<g opacity="0.8">
<mask id="mask2_222_101" style="mask-type:luminance" maskUnits="userSpaceOnUse" x="190" y="0" width="192" height="395">
<path d="M190.953 0H381.906V394.434H190.953V0Z" fill="white"/>
</mask>
<g mask="url(#mask2_222_101)">
<path d="M190.953 0V394.434L381.831 290.864L190.953 0Z" fill="white"/>
</g>
</g>
<g opacity="0.45">
<mask id="mask3_222_101" style="mask-type:luminance" maskUnits="userSpaceOnUse" x="0" y="324" width="191" height="248">
<path d="M0 324.078H190.953V571.047H0V324.078Z" fill="white"/>
</mask>
<g mask="url(#mask3_222_101)">
<path d="M0 324.078L190.953 571.047V427.648L0 324.078Z" fill="white"/>
</g>
</g>
<g opacity="0.8">
<mask id="mask4_222_101" style="mask-type:luminance" maskUnits="userSpaceOnUse" x="190" y="324" width="192" height="248">
<path d="M190.953 324.078H381.981V571.047H190.953V324.078Z" fill="white"/>
</mask>
<g mask="url(#mask4_222_101)">
<path d="M190.953 427.648V571.047L381.981 324.078L190.953 427.648Z" fill="white"/>
</g>
</g>
</svg>
