<svg width="158" height="36" viewBox="0 0 158 36" fill="none" xmlns="http://www.w3.org/2000/svg">
<path d="M0 27.36V1.44H6.01877L17.913 13.248V23.184L5.40973 10.728L7.59512 9.828V27.36H0ZM15.6202 27.36V1.44H23.2153V27.36H15.6202Z" fill="#7C04DB"/>
<path d="M28.094 27.36V1.44H35.6892V27.36H28.094ZM32.1066 19.584V13.392H43.8575V19.584H32.1066ZM32.1066 8.064V1.44H45.5771V8.064H32.1066Z" fill="#7C04DB"/>
<path d="M48.1359 1.44H70.0614V8.064H62.8962V27.36H55.3011V8.064H48.1359V1.44Z" fill="#7C04DB"/>
<path d="M77.0578 27.36V5.904C77.0578 5.424 77.0459 4.824 77.022 4.104C76.9981 3.384 76.9504 2.676 76.8787 1.98C76.8309 1.284 76.7473 0.72 76.6279 0.288L76.7712 0H84.653V27.36H77.0578Z" fill="white"/>
<path d="M88.23 17.424C88.23 15.024 88.6838 13.068 89.5914 11.556C90.4989 10.02 91.7529 8.892 93.3531 8.172C94.9533 7.428 96.7804 7.056 98.8345 7.056C100.888 7.056 102.716 7.428 104.316 8.172C105.916 8.892 107.17 10.02 108.078 11.556C108.985 13.068 109.439 15.024 109.439 17.424C109.439 19.824 108.985 21.792 108.078 23.328C107.17 24.84 105.916 25.968 104.316 26.712C102.716 27.432 100.888 27.792 98.8345 27.792C96.7804 27.792 94.9533 27.432 93.3531 26.712C91.7529 25.968 90.4989 24.84 89.5914 23.328C88.6838 21.792 88.23 19.824 88.23 17.424ZM95.9684 17.424C95.9684 19.08 96.1953 20.34 96.6491 21.204C97.1029 22.044 97.8313 22.464 98.8345 22.464C99.8376 22.464 100.566 22.044 101.02 21.204C101.474 20.34 101.701 19.08 101.701 17.424C101.701 15.768 101.474 14.52 101.02 13.68C100.566 12.816 99.8376 12.384 98.8345 12.384C97.8313 12.384 97.1029 12.816 96.6491 13.68C96.1953 14.52 95.9684 15.768 95.9684 17.424Z" fill="white"/>
<path d="M120.394 36C119.391 36 118.328 35.928 117.205 35.784C116.107 35.64 115.235 35.424 114.59 35.136V29.232H115.163C115.737 29.496 116.453 29.7 117.313 29.844C118.173 30.012 118.961 30.096 119.677 30.096C120.704 30.096 121.66 30 122.543 29.808C123.427 29.64 124.132 29.304 124.657 28.8C125.207 28.32 125.481 27.6 125.481 26.64V15.84C125.481 14.856 125.517 13.956 125.589 13.14C125.684 12.324 125.875 11.808 126.162 11.592L126.699 12.78C126.699 12.852 126.449 12.852 125.947 12.78C125.469 12.708 124.932 12.672 124.335 12.672C123.356 12.672 122.555 12.888 121.934 13.32C121.313 13.752 120.86 14.316 120.573 15.012C120.31 15.708 120.179 16.464 120.179 17.28C120.179 18.72 120.501 19.848 121.146 20.664C121.815 21.48 122.878 21.888 124.335 21.888C124.55 21.888 124.777 21.876 125.015 21.852C125.254 21.828 125.553 21.768 125.911 21.672V27C125.338 27.096 124.812 27.156 124.335 27.18C123.881 27.204 123.451 27.216 123.045 27.216C120.872 27.216 118.985 26.868 117.385 26.172C115.808 25.452 114.59 24.372 113.73 22.932C112.87 21.468 112.441 19.632 112.441 17.424C112.441 15.576 112.763 14.004 113.408 12.708C114.077 11.388 114.996 10.32 116.166 9.504C117.337 8.664 118.674 8.052 120.179 7.668C121.708 7.26 123.332 7.056 125.051 7.056C126.914 7.056 128.526 7.236 129.888 7.596C131.249 7.956 132.36 8.352 133.22 8.784L133.363 9.072C133.267 9.504 133.196 10.08 133.148 10.8C133.124 11.496 133.1 12.216 133.076 12.96C133.076 13.68 133.076 14.304 133.076 14.832V25.488C133.076 27.984 132.527 30 131.428 31.536C130.354 33.096 128.861 34.224 126.95 34.92C125.039 35.64 122.854 36 120.394 36Z" fill="white"/>
<path d="M136.791 17.424C136.791 15.024 137.245 13.068 138.152 11.556C139.06 10.02 140.314 8.892 141.914 8.172C143.514 7.428 145.342 7.056 147.396 7.056C149.45 7.056 151.277 7.428 152.877 8.172C154.477 8.892 155.731 10.02 156.639 11.556C157.546 13.068 158 15.024 158 17.424C158 19.824 157.546 21.792 156.639 23.328C155.731 24.84 154.477 25.968 152.877 26.712C151.277 27.432 149.45 27.792 147.396 27.792C145.342 27.792 143.514 27.432 141.914 26.712C140.314 25.968 139.06 24.84 138.152 23.328C137.245 21.792 136.791 19.824 136.791 17.424ZM144.529 17.424C144.529 19.08 144.756 20.34 145.21 21.204C145.664 22.044 146.392 22.464 147.396 22.464C148.399 22.464 149.127 22.044 149.581 21.204C150.035 20.34 150.262 19.08 150.262 17.424C150.262 15.768 150.035 14.52 149.581 13.68C149.127 12.816 148.399 12.384 147.396 12.384C146.392 12.384 145.664 12.816 145.21 13.68C144.756 14.52 144.529 15.768 144.529 17.424Z" fill="white"/>
</svg>
